# xmcd
#
# Track frame offsets: 
#        150
#        14085
#        33667
#        49347
#        66020
#        79827
#        90765
#        105847
#        115367
#        127560
#        145370
#        159117
#        173617
#
# Disc length: 2462 seconds
#
# Revision: 2
# Processed by: cddbd v1.5.2PL0 Copyright (c) Steve Scherf et al.
# Submitted via: ExactAudioCopy v0.95b3
#
DISCID=98099c0d
DTITLE=Don Williams - Borrowed Tales
DYEAR=1995
DGENRE=Country
TTITLE0=01 CRYING IN THE RAIN
TTITLE1=02 YOU'VE GOT A FRIEND
TTITLE2=03 GAMES PEOPLE PLAY
TTITLE3=04 FEVER 
TTITLE4=05 PRETEND
TTITLE5=06 REASON TO BELIEVE
TTITLE6=07 LAY DOWM SALLY
TTITLE7=08 MY RIFLE,MY PONY AND ME
TTITLE8=09 I'LL BE THERE IF YOU EVER WANT ME
TTITLE9=10 IF YOU COULD READ MY MIND
TTITLE10=11 PEACE TRAIN
TTITLE11=12 THE LONG BLACK VEIL
TTITLE12=13 THE LETTER
EXTD=
EXTT0=
EXTT1=
EXTT2=
EXTT3=
EXTT4=
EXTT5=
EXTT6=
EXTT7=
EXTT8=
EXTT9=
EXTT10=
EXTT11=
EXTT12=
PLAYORDER=
